<?xml version="1.0" encoding="utf-8"?>
<!DOCTYPE svg>
<svg version="1.1" viewBox="0 0 960 560" style="enable-background:new 0 0 960 560;" xml:space="preserve">
    <style type="text/css">.st0{fill:#0057BA;}
    </style>
    <g>
        <path class="st0" d="M657.7,200.8c-0.5,0.5-1,0.4-1.6,0.5c-15,1.5-29.8,4.4-44.2,9.1c-12.6,4.1-23.7,10.7-33.6,19.4
            c-6.4,5.6-12.1,11.9-16.6,19.2c-0.3,0.5-0.9,1.1-0.6,1.7c0.3,0.6,1.1,0.3,1.7,0.3c18.2,0,35.4,4.1,51.8,11.8
            c6.2,2.9,12.1,6.3,17.7,10.3c2.9,2.1,5.6,4.5,8.2,6.9c5.1,4.7,9.9,9.7,14.3,15.1c5.3,6.4,9.9,13.3,13.9,20.6
            c3.6,6.6,6.7,13.5,8.8,20.7c0.6,2.1,0.5,2.2-1.7,2.2c-3.6-0.1-7.1-0.4-10.7-0.3c-6.7,0.2-13.3,0.5-19.9,1.1
            c-7.4,0.7-14.7,1.8-21.9,3.2c-8.6,1.7-17,4-24.9,7.7c-8.6,4.1-16.6,9-24,14.9c-0.3,0.2-0.6,0.4-0.7,0.8c0.2,0.4,0.6,0.4,0.9,0.5
            c8,2.3,15.7,5.4,23.1,9c9.3,4.6,17.9,10.1,25.6,17.1c5.7,5.2,10.4,11.3,14.4,18c5.1,8.7,9.5,17.8,12.8,27.4
            c2.6,7.8,4.5,15.7,5.1,24c0.1,1.4,0,2.8,0.3,4.2c0,0.2,0,0.4,0,0.6c-0.1,1.5-0.4,1.7-1.8,1c-4.3-2.2-8.8-4.1-13.3-5.8
            c-9.9-3.7-20-6.5-30.2-8.9c-9.7-2.3-19.4-4.1-29.2-5.5c-3.2-0.5-6.3-0.9-9.5-1.3c-0.7-0.1-1.5-0.1-2.2-0.1c-6.5,0-13-0.1-19.5,0.1
            c-13.4,0.4-26.8,1.2-40.1,3.7c-4.6,0.9-9.1,2.1-13.6,3.3c-11.3,3.1-22.1,7.7-33.3,11.3c-11.4,3.7-23,6.5-34.9,8
            c-4.7,0.6-9.5,0.9-14.3,1.1c-3.3,0.1-6.5,0.2-9.8,0.1c-14.4-0.2-28.1-3.2-41.2-9.2c-11.6-5.4-22-12.7-31.6-21
            c-4.2-3.7-8.3-7.6-12.3-11.5c-0.7-0.7-1.5-1-2.5-1c-3.2,0-6.4,0.1-9.6-0.1c-8.1-0.5-15.9-2.2-22.9-6.6c-1.6-1-3-2.2-4.2-3.7
            c-2.3-2.8-2-6.5-0.5-9c1.2-2,2.9-3.5,4.7-4.8c3.5-2.4,7.3-3.9,11.3-5.1c3.2-1,2.6-0.8,1.1-2.9c-7-10.1-12.3-21-16-32.7
            c-2.3-7.2-3.8-14.5-4.6-22c-0.2-2.2-0.4-4.5-0.5-6.7c-0.1-2.6-0.3-5.1-0.3-7.7c-0.1-4.7,0.1-9.3,0.5-14c0.3-4.1,0.9-8.2,1.6-12.3
            c0.7-3.7,1.5-7.3,2.8-10.8c0.4-1.1,0.3-1.9-0.2-3c-4.6-9.1-8.7-18.4-12.3-28c-2.7-7.2-5.1-14.6-6.5-22.2c-0.7-3.5-1.1-7-1.1-10.6
            c0-2,0.3-4.1,0.9-6.1c1.3-4.2,4-7,8.2-8.5c3.2-1.1,6.4-1.5,9.7-1.7c9.4-0.5,18.6,0.8,27.8,2.4c8.2,1.4,16.4,3.3,24.4,5.5
            c0.4,0.1,0.7,0.2,1.1,0.3c0.7,0.2,1.2,0.1,1.7-0.5c1.2-1.3,2.4-2.5,3.6-3.7c9.7-9.8,20.2-18.7,31.2-27c10.7-8,21.9-15.2,33.7-21.6
            c13.7-7.4,28-13.2,43-17.4c9.3-2.6,18.6-4.9,28-6.5c5.8-1,11.6-1.8,17.5-2.4c7.5-0.7,15-1,22.5-0.9c7.4,0.1,14.8,0.6,22.1,1.5
            c9.2,1.1,18.4,2.8,27.4,5.1c13.2,3.4,26.2,7.4,38.6,13.1c16.5,7.6,31.8,17.2,45.5,29.3c3.4,3,6.8,6.1,9.8,9.5
            C657.1,199.8,657.5,200.2,657.7,200.8z M338.8,403.4c0.6,0,1.2,0,1.7,0c6.2-0.4,12.4,0.3,18.4,1.8c5.9,1.4,11.7,3.3,17.6,5
            c5.3,1.5,10.7,2.8,16.2,3.2c7.7,0.5,15.3,0.2,22.9-1.6c6.6-1.5,12.8-3.9,18.3-7.8c11.7-8.3,19.3-19.3,22.5-33.4
            c2.3-10.2,3.1-20.5,3.3-30.9c0.1-4.5-0.2-8.9-0.5-13.4c-0.5-7.4-1.4-14.8-2.8-22.2c-1.7-8.6-4.2-16.9-8.3-24.7
            c-3.1-5.9-6.9-11.2-12.1-15.3c-6.5-5.2-13.9-7.4-22.2-6.1c-1.5,0.2-2.9,0.5-4.3,0.7c-3,0.5-6,1.1-8.9,2
            c-10.3,3.2-18.6,9.2-25.6,17.3c-5.6,6.5-9.9,13.8-13.4,21.6c-4.1,9.2-6.8,18.8-8.9,28.5c-2.1,9.7-3.5,19.5-4.4,29.4
            c0,0.5,0,1-0.3,1.4c-1.6,2-3.6,3.6-6.3,3.8c-1.9,0.2-3.6-0.3-5.3-1c-0.1,0-0.1,0-0.2-0.1c0,0.1,0,0.1,0,0.2
            c0.9,2.2,1.8,4.4,2.7,6.6c0.3,0.6,0.6,1.2,1.1,1.7c0.7,0.7,0.9,1.5,1.1,2.4c1,6.4,1.7,12.8,1.3,19.3c-0.3,4.1-1.1,8-3.5,11.4
            C338.6,403.4,338.6,403.5,338.8,403.4z M308,400.5c1-1.9,2.6-2,4.4-1.9c1.5,0.1,3,0.3,4.5,0.5c3.2,0.5,6.2,1.4,9.4,1.8
            c0.3,0,0.7,0.2,0.9-0.3c-1.1-1-2.3-2-3.2-3.2c-3.7-4.9-6-10.5-7.7-16.3c-1.6-5.5-2.9-11.1-3.2-16.8c-0.2-3.8-0.1-7.5,0.9-11.1
            c0.9-3.3,2.1-6.3,5.9-7.3c0.3-0.1,0.5-0.3,0.6-0.6c0.4-1.1,0.5-1.1,1.4-0.6c0.2,0.1,0.4,0.3,0.6-0.1c-0.2-0.6-0.4-1.2-0.7-1.8
            c-0.9-2.1-1.8-4.1-2.8-6.2c-1.2-2.7-2.7-5.4-3.2-8.3c-0.4-2.4-1.1-4.7-1.7-7c-0.3-1.3-0.7-2.5-1-3.8c-1.1-4.3-1.9-8.7-3.2-13
            c-0.8-2.6-1.7-5.1-3.6-7.1c-1.8-1.8-4.4-2.2-6.7-1.1c-0.8,0.4-1.5,0.9-2.2,1.6c-1.8,1.8-3,3.9-4.1,6.1c-2.1,4.4-3.3,9.2-4.2,14
            c-0.8,4.6-1.4,9.2-1,13.9c0.6,8,1.4,15.9,2.6,23.8c0.9,5.9,2,11.7,4,17.3c1,2.8,2.3,5.4,3.4,8.1c1.8,4.8,4.2,9.4,6.7,13.9
            C305.9,396.9,306.7,398.7,308,400.5z"/>
        <path class="st0" d="M444.4,365.8c0.1,3.8-0.2,7.8-1.3,11.8c-0.6,2.2-1.5,4.2-3.2,5.9c-1.2,1.2-2.5,2.1-4.2,2.3
            c-2.1,0.4-4.2,0.7-6.4,0.5c-3.5-0.3-6.2-2.1-8.5-4.6c-2.9-3.2-4.7-7.1-6.1-11.1c-1.9-5.4-3-11-3.8-16.7c-0.6-4.6-1.2-9.3-1.5-13.9
            c-0.3-5.6-0.5-11.2,1.1-16.7c0.7-2.4,1.8-4.7,3.7-6.5c3-2.8,6.4-3.8,10.4-2.8c4.4,1.1,7.8,3.5,10.4,7.2c2.7,3.9,4.3,8.3,5.4,12.8
            c1.5,5.5,2.3,11.2,2.9,16.9C444,355.7,444.5,360.6,444.4,365.8z"/>
    </g>
</svg>
